<svg width="900" height="902" viewBox="0 0 900 902" fill="none" xmlns="http://www.w3.org/2000/svg">
<path d="M537 900C521 877 508.469 855.489 492.5 798C480 753 493.5 682 486 655.5C478.5 629 442 590 433 578C424 566 411.5 546 411.5 532C411.5 518 418.5 499 421.5 488C423.9 479.2 441.167 434 449.5 412.5L468 480C470.333 479.333 477.5 478 487.5 478C497.5 478 507.333 478 511 478L541 410C539.693 436.956 549.884 504.46 600.394 562.5M475 635.5C435.5 665.5 376.5 678.5 376.5 771C376.5 861.34 474.93 883.099 529.609 889M688 900C700.167 896.333 724.5 863 721.5 807C716.062 705.5 674.5 641.02 630.5 594.857M509.39 849.5C484.557 837.833 437 816.2 437 765C437 713.8 470.667 685.667 487.5 678M600.394 562.5C601.413 563.671 602.448 564.837 603.5 566C612.829 576.311 621.862 585.795 630.5 594.857M600.394 562.5C610.096 559.5 629.3 547.2 628.5 522C627.5 490.5 583 484.5 582 461.5C581 438.5 594.5 432 614.5 428C634.5 424 654.5 425 680 451.5C705.5 478 697 507.5 690.5 530C685.3 548 648.333 580.738 630.5 594.857M525 685C525.5 687 547.221 742.572 559.5 760C575 782 589.5 797.5 595.5 793C601.5 788.5 573.5 745.5 566.5 734.5C556.636 719 551.833 703 548 693M592.5 712.5C594.5 739.833 599.069 786.092 603.5 798C611.5 819.5 617.5 825 620.5 822.5C626.5 817.5 625.5 792.5 623 771C620.733 751.5 618.167 731.167 617 722" stroke="white" stroke-width="4"/>
<path d="M450.5 497C463.479 497 474 507.521 474 520.5C474 533.479 463.479 544 450.5 544C437.521 544 427 533.479 427 520.5C427 507.521 437.521 497 450.5 497ZM449 504C439.059 504 431 512.059 431 522C431 531.941 439.059 540 449 540C458.941 540 467 531.941 467 522C467 512.059 458.941 504 449 504Z" fill="white"/>
<path d="M537.5 491C550.479 491 561 501.521 561 514.5C561 527.479 550.479 538 537.5 538C524.521 538 514 527.479 514 514.5C514 501.521 524.521 491 537.5 491ZM536 498C526.059 498 518 506.059 518 516C518 525.941 526.059 534 536 534C545.941 534 554 525.941 554 516C554 506.059 545.941 498 536 498Z" fill="white"/>
</svg>
